<svg width="20" height="14" viewBox="0 0 20 14" fill="none" xmlns="http://www.w3.org/2000/svg">
<path d="M0.223222 6.96186C0.103959 3.7604 2.85439 0.801866 5.99762 0.763482C7.59964 0.624172 9.15823 1.25845 10.3706 2.29295C9.87328 2.85046 9.36727 3.40152 8.82676 3.91743C7.75945 3.25631 6.47441 2.75248 5.22701 3.19994C3.21507 3.78402 1.99664 6.20599 2.74118 8.2127C3.35777 10.3085 5.85808 11.4587 7.81763 10.5783C8.83229 10.2079 9.50127 9.25337 9.79482 8.22774C8.63194 8.20411 7.4688 8.21888 6.30591 8.18613C6.30302 7.48072 6.30012 6.77799 6.30302 6.07258C8.2423 6.06963 10.1845 6.06372 12.1266 6.08144C12.2459 7.8098 11.9958 9.65949 10.8937 11.0467C9.38464 13.0268 6.59657 13.608 4.32846 12.8312C1.92134 12.0251 0.170831 9.55266 0.223222 6.96186Z" fill="#666666"/>
<path d="M15.9067 4.2937C16.4825 4.2937 17.058 4.2937 17.6364 4.2937C17.6396 4.88369 17.6451 5.47663 17.6483 6.06635C18.2267 6.07226 18.8083 6.07521 19.387 6.07816C19.387 6.66815 19.387 7.25492 19.387 7.84491C18.8085 7.84786 18.227 7.85082 17.6483 7.85377C17.6425 8.44671 17.6396 9.03643 17.6364 9.62937C17.058 9.62642 16.4791 9.62937 15.9036 9.62937C15.898 9.03643 15.898 8.44671 15.892 7.85672C15.3136 7.85055 14.732 7.84786 14.1533 7.84464C14.1533 7.25465 14.1533 6.66789 14.1533 6.0779C14.732 6.07494 15.3107 6.07199 15.892 6.06609C15.8949 5.47663 15.9007 4.88369 15.9067 4.2937Z" fill="#666666"/>
</svg>
